<svg xmlns="http://www.w3.org/2000/svg" width="63" height="63" viewBox="0 0 63 63" fill="none">
  <path d="M18.9 16.065V17.065C19.2557 17.065 19.5846 16.8761 19.7638 16.5689L18.9 16.065ZM23.31 8.505V7.505C22.9543 7.505 22.6254 7.69392 22.4462 8.00113L23.31 8.505ZM39.69 8.505L40.5538 8.00113C40.3746 7.69392 40.0457 7.505 39.69 7.505V8.505ZM44.1 16.065L43.2362 16.5689C43.4154 16.8761 43.7443 17.065 44.1 17.065V16.065ZM7.30002 48.195V22.365H5.30002V48.195H7.30002ZM12.6 17.065H18.9V15.065H12.6V17.065ZM19.7638 16.5689L24.1738 9.00888L22.4462 8.00113L18.0362 15.5611L19.7638 16.5689ZM23.31 9.505H39.69V7.505H23.31V9.505ZM38.8262 9.00888L43.2362 16.5689L44.9638 15.5611L40.5538 8.00113L38.8262 9.00888ZM44.1 17.065H50.4V15.065H44.1V17.065ZM55.7 22.365V48.195H57.7V22.365H55.7ZM55.7 48.195C55.7 51.1221 53.3271 53.495 50.4 53.495V55.495C54.4317 55.495 57.7 52.2267 57.7 48.195H55.7ZM50.4 17.065C53.3271 17.065 55.7 19.4379 55.7 22.365H57.7C57.7 18.3333 54.4317 15.065 50.4 15.065V17.065ZM7.30002 22.365C7.30002 19.4379 9.67291 17.065 12.6 17.065V15.065C8.56834 15.065 5.30002 18.3333 5.30002 22.365H7.30002ZM12.6 53.495C9.67291 53.495 7.30002 51.1221 7.30002 48.195H5.30002C5.30002 52.2267 8.56834 55.495 12.6 55.495V53.495ZM39.95 33.705C39.95 38.3718 36.1668 42.155 31.5 42.155V44.155C37.2714 44.155 41.95 39.4764 41.95 33.705H39.95ZM31.5 42.155C26.8332 42.155 23.05 38.3718 23.05 33.705H21.05C21.05 39.4764 25.7286 44.155 31.5 44.155V42.155ZM23.05 33.705C23.05 29.0382 26.8332 25.255 31.5 25.255V23.255C25.7286 23.255 21.05 27.9336 21.05 33.705H23.05ZM31.5 25.255C36.1668 25.255 39.95 29.0382 39.95 33.705H41.95C41.95 27.9336 37.2714 23.255 31.5 23.255V25.255ZM50.4 53.495H12.6V55.495H50.4V53.495Z" fill="black"/>
</svg>